<svg width="2420" height="719" xmlns="http://www.w3.org/2000/svg" xmlns:xlink="http://www.w3.org/1999/xlink" xml:space="preserve" overflow="hidden"><g transform="translate(-963 -782)"><g><g><g><path d="M441.091 11.9375 441.091 11.9375C445.269 27.4563 456.609 40.5875 471.531 47.75L471.531 47.75C456.609 54.9125 445.866 68.0438 441.091 83.5625L441.091 83.5625C436.913 68.0438 425.572 54.9125 410.65 47.75L410.65 47.75C425.572 40.5875 436.913 27.4563 441.091 11.9375Z" stroke="#0066FF" stroke-width="13.9756" fill="#FFFFFF" transform="matrix(1.42583 0 0 1 963 782)"/><path d="M59.0906 143.25 59.0906 143.25C63.2688 158.769 74.6094 171.9 89.5313 179.063L89.5313 179.063C74.6094 186.225 63.8656 199.356 59.0906 214.875L59.0906 214.875C54.9125 199.356 43.5719 186.225 28.65 179.063L28.65 179.063C43.5719 171.9 54.9125 158.769 59.0906 143.25Z" stroke="#0066FF" stroke-width="13.9756" fill="#FFFFFF" transform="matrix(1.42583 0 0 1 963 782)"/><path d="M118.181 23.875 118.181 23.875C121.763 37.0063 131.313 47.75 143.25 53.7188L143.25 53.7188C130.716 59.6875 121.763 70.4313 118.181 83.5625L118.181 83.5625C114.6 70.4313 105.05 59.6875 93.1125 53.7188L93.1125 53.7188C105.05 47.75 114.6 37.0063 118.181 23.875Z" stroke="#0066FF" stroke-width="13.9756" fill="#FFFFFF" transform="matrix(1.42583 0 0 1 963 782)"/><path d="M512.119 119.375 512.119 119.375C515.7 132.506 525.25 143.25 537.188 149.219L537.188 149.219C524.653 155.188 515.7 165.931 512.119 179.063L512.119 179.063C508.538 165.931 498.988 155.188 487.05 149.219L487.05 149.219C498.988 143.25 508.538 132.506 512.119 119.375Z" stroke="#0066FF" stroke-width="13.9756" fill="#FFFFFF" transform="matrix(1.42583 0 0 1 963 782)"/><path d="M286.5 235.766C281.725 235.766 277.547 231.588 277.547 226.813L277.547 167.125C277.547 162.35 281.725 158.172 286.5 158.172 291.275 158.172 295.453 162.35 295.453 167.125L295.453 226.813C295.453 231.588 291.275 235.766 286.5 235.766Z" stroke="#0066FF" stroke-width="13.9756" fill="#FFFFFF" transform="matrix(1.42583 0 0 1 963 782)"/><path d="M286.5 140.266C281.725 140.266 277.547 136.088 277.547 131.313L277.547 83.5625C277.547 78.7875 281.725 74.6094 286.5 74.6094 291.275 74.6094 295.453 78.7875 295.453 83.5625L295.453 131.313C295.453 136.088 291.275 140.266 286.5 140.266Z" stroke="#0066FF" stroke-width="13.9756" fill="#FFFFFF" transform="matrix(1.42583 0 0 1 963 782)"/><path d="M286.5 56.7031C281.725 56.7031 277.547 52.525 277.547 47.75L277.547 23.875C277.547 19.1 281.725 14.9219 286.5 14.9219 291.275 14.9219 295.453 19.1 295.453 23.875L295.453 47.75C295.453 52.525 291.275 56.7031 286.5 56.7031Z" stroke="#0066FF" stroke-width="13.9756" fill="#FFFFFF" transform="matrix(1.42583 0 0 1 963 782)"/><path d="M352.156 193.984C351.559 193.984 350.963 193.984 350.366 193.984 345.591 192.791 342.606 188.016 343.8 183.241L353.947 136.684C355.141 131.909 359.916 128.925 364.691 130.119 369.466 131.313 372.45 136.088 371.256 140.863L361.109 187.419C359.916 191 356.334 193.984 352.156 193.984Z" stroke="#0066FF" stroke-width="13.9756" fill="#FFFFFF" transform="matrix(1.42583 0 0 1 963 782)"/><path d="M370.063 112.213C369.466 112.213 368.869 112.213 368.272 112.213 363.497 111.019 360.513 106.244 361.706 101.469L361.706 101.469 369.466 66.2531C370.659 61.4781 374.838 58.4938 380.209 59.0906 384.984 60.2844 387.969 64.4625 387.372 69.8344 387.372 69.8344 387.372 69.8344 387.372 70.4313L379.613 105.647C377.822 109.228 374.241 112.213 370.063 112.213Z" stroke="#0066FF" stroke-width="13.9756" fill="#FFFFFF" transform="matrix(1.42583 0 0 1 963 782)"/><path d="M411.844 182.047C407.069 182.047 402.891 177.869 402.891 173.094 402.891 171.303 403.488 169.513 404.681 167.722L445.269 108.631C448.253 104.453 453.625 103.856 457.803 106.841 461.384 109.825 462.578 114.6 460.191 118.778L419.603 177.869C417.813 180.853 414.828 182.047 411.844 182.047Z" stroke="#0066FF" stroke-width="13.9756" fill="#FFFFFF" transform="matrix(1.42583 0 0 1 963 782)"/><path d="M220.844 193.984C216.666 193.984 213.084 191 211.891 186.822L199.356 128.328C198.163 123.553 201.744 118.778 206.519 117.584 211.294 116.391 216.069 119.375 216.666 124.15L229.2 182.644C230.394 187.419 227.409 192.194 222.634 193.388 222.038 193.984 221.441 193.984 220.844 193.984Z" stroke="#0066FF" stroke-width="13.9756" fill="#FFFFFF" transform="matrix(1.42583 0 0 1 963 782)"/><path d="M200.55 100.872C196.372 100.872 192.791 97.8875 191.597 93.7094L186.822 70.4313C185.628 65.6563 188.613 60.8813 193.388 59.6875 198.163 58.4938 202.938 61.4781 204.131 66.2531 204.131 66.2531 204.131 66.2531 204.131 66.85L208.906 90.1281C210.1 94.9031 207.116 99.6781 202.341 100.872L202.341 100.872C201.744 100.872 201.147 100.872 200.55 100.872L200.55 100.872Z" stroke="#0066FF" stroke-width="13.9756" fill="#FFFFFF" transform="matrix(1.42583 0 0 1 963 782)"/><path d="M161.156 182.047C158.172 182.047 155.188 180.853 153.994 178.466L113.406 119.375C111.019 115.197 112.213 109.825 116.391 106.841 120.569 104.453 125.344 105.05 128.328 109.228L168.916 168.319C171.9 172.497 170.706 177.869 166.528 180.853 164.738 181.45 162.947 182.047 161.156 182.047Z" stroke="#0066FF" stroke-width="13.9756" fill="#FFFFFF" transform="matrix(1.42583 0 0 1 963 782)"/><path d="M547.931 488.841 530.025 295.453C529.428 289.484 524.056 284.709 518.088 284.709 515.7 284.709 512.119 284.709 509.134 284.709L506.15 250.091 495.406 249.494C486.453 248.897 477.5 249.494 469.144 250.091L466.159 217.859 457.206 216.069C394.534 208.309 331.863 229.2 286.5 273.369 241.138 229.2 178.466 208.309 115.794 216.069L106.841 217.859 103.856 250.091C94.9031 249.494 86.5469 248.897 77.5938 249.494L67.4469 250.091 64.4625 284.709C60.8813 284.709 57.8969 284.709 55.5094 284.709 49.5406 284.709 44.1688 289.484 43.5719 295.453L25.6656 488.841C24.4719 495.406 29.2469 501.375 35.8125 501.972 36.4094 501.972 37.0063 501.972 37.6031 501.972 74.0125 500.778 176.078 503.166 259.044 557.481 263.222 559.869 267.4 561.659 272.175 561.659L302.019 561.659C306.794 561.659 310.972 560.466 314.553 558.078 401.697 503.763 500.778 501.375 535.994 502.569 542.559 502.569 547.931 497.794 548.528 491.228 547.931 489.438 547.931 489.438 547.931 488.841ZM298.438 294.856C336.638 255.463 389.759 235.169 444.075 238.153L460.191 423.184C432.138 428.556 359.319 446.463 298.438 498.988L298.438 294.856ZM128.925 238.75C183.241 235.766 236.363 256.059 274.563 295.453L274.563 499.584C213.681 447.059 140.863 429.153 112.809 423.781L128.925 238.75ZM71.625 459.594 89.5313 272.772C93.1125 272.772 97.2906 273.369 102.066 273.369L87.1438 444.075 98.4844 445.269C99.6781 445.269 200.55 458.4 270.981 528.234L270.981 528.234C192.791 468.547 105.647 460.788 71.625 459.594ZM302.019 529.428 302.019 529.428C373.644 458.997 473.919 445.269 474.516 445.269L485.856 444.075 470.934 273.369C475.709 272.772 479.888 272.772 483.469 272.772L501.375 459.594C467.353 460.788 380.209 469.144 302.019 529.428Z" stroke="#0066FF" stroke-width="13.9756" fill="#FFFFFF" transform="matrix(1.42583 0 0 1 963 782)"/></g></g></g><text fill="#0066FF" font-family="Courgette,Courgette_MSFontService,sans-serif" font-weight="700" font-size="275" transform="matrix(1 0 0 1 1758.69 1263)">myStoryGen</text></g></svg>