<svg width="239" height="165" xmlns="http://www.w3.org/2000/svg" xmlns:xlink="http://www.w3.org/1999/xlink" xml:space="preserve" overflow="hidden"><g transform="translate(-314 -228)"><path d="M127.016 3.4375 127.016 3.4375C128.219 7.90625 131.484 11.6875 135.781 13.75L135.781 13.75C131.484 15.8125 128.391 19.5938 127.016 24.0625L127.016 24.0625C125.812 19.5938 122.547 15.8125 118.25 13.75L118.25 13.75C122.547 11.6875 125.812 7.90625 127.016 3.4375Z" stroke="#0066FF" stroke-width="4.02439" fill="#FFFFFF" transform="matrix(1.44848 0 0 1 314 228)"/><path d="M17.0156 41.25 17.0156 41.25C18.2188 45.7188 21.4844 49.5 25.7812 51.5625L25.7812 51.5625C21.4844 53.625 18.3906 57.4063 17.0156 61.875L17.0156 61.875C15.8125 57.4063 12.5469 53.625 8.25 51.5625L8.25 51.5625C12.5469 49.5 15.8125 45.7188 17.0156 41.25Z" stroke="#0066FF" stroke-width="4.02439" fill="#FFFFFF" transform="matrix(1.44848 0 0 1 314 228)"/><path d="M34.0312 6.875 34.0312 6.875C35.0625 10.6562 37.8125 13.75 41.25 15.4688L41.25 15.4688C37.6406 17.1875 35.0625 20.2812 34.0312 24.0625L34.0312 24.0625C33 20.2812 30.25 17.1875 26.8125 15.4688L26.8125 15.4688C30.25 13.75 33 10.6562 34.0312 6.875Z" stroke="#0066FF" stroke-width="4.02439" fill="#FFFFFF" transform="matrix(1.44848 0 0 1 314 228)"/><path d="M147.469 34.375 147.469 34.375C148.5 38.1562 151.25 41.25 154.688 42.9688L154.688 42.9688C151.078 44.6875 148.5 47.7812 147.469 51.5625L147.469 51.5625C146.438 47.7812 143.688 44.6875 140.25 42.9688L140.25 42.9688C143.688 41.25 146.438 38.1562 147.469 34.375Z" stroke="#0066FF" stroke-width="4.02439" fill="#FFFFFF" transform="matrix(1.44848 0 0 1 314 228)"/><path d="M82.5 67.8906C81.125 67.8906 79.9219 66.6875 79.9219 65.3125L79.9219 48.125C79.9219 46.75 81.125 45.5469 82.5 45.5469 83.875 45.5469 85.0781 46.75 85.0781 48.125L85.0781 65.3125C85.0781 66.6875 83.875 67.8906 82.5 67.8906Z" stroke="#0066FF" stroke-width="4.02439" fill="#FFFFFF" transform="matrix(1.44848 0 0 1 314 228)"/><path d="M82.5 40.3906C81.125 40.3906 79.9219 39.1875 79.9219 37.8125L79.9219 24.0625C79.9219 22.6875 81.125 21.4844 82.5 21.4844 83.875 21.4844 85.0781 22.6875 85.0781 24.0625L85.0781 37.8125C85.0781 39.1875 83.875 40.3906 82.5 40.3906Z" stroke="#0066FF" stroke-width="4.02439" fill="#FFFFFF" transform="matrix(1.44848 0 0 1 314 228)"/><path d="M82.5 16.3281C81.125 16.3281 79.9219 15.125 79.9219 13.75L79.9219 6.875C79.9219 5.5 81.125 4.29688 82.5 4.29688 83.875 4.29688 85.0781 5.5 85.0781 6.875L85.0781 13.75C85.0781 15.125 83.875 16.3281 82.5 16.3281Z" stroke="#0066FF" stroke-width="4.02439" fill="#FFFFFF" transform="matrix(1.44848 0 0 1 314 228)"/><path d="M101.406 55.8594C101.234 55.8594 101.062 55.8594 100.891 55.8594 99.5156 55.5156 98.6562 54.1406 99 52.7656L101.922 39.3594C102.266 37.9844 103.641 37.125 105.016 37.4688 106.391 37.8125 107.25 39.1875 106.906 40.5625L103.984 53.9688C103.641 55 102.609 55.8594 101.406 55.8594Z" stroke="#0066FF" stroke-width="4.02439" fill="#FFFFFF" transform="matrix(1.44848 0 0 1 314 228)"/><path d="M106.562 32.3125C106.391 32.3125 106.219 32.3125 106.047 32.3125 104.672 31.9688 103.812 30.5937 104.156 29.2188L104.156 29.2188 106.391 19.0781C106.734 17.7031 107.938 16.8438 109.484 17.0156 110.859 17.3594 111.719 18.5625 111.547 20.1094 111.547 20.1094 111.547 20.1094 111.547 20.2812L109.312 30.4219C108.797 31.4531 107.766 32.3125 106.562 32.3125Z" stroke="#0066FF" stroke-width="4.02439" fill="#FFFFFF" transform="matrix(1.44848 0 0 1 314 228)"/><path d="M118.594 52.4219C117.219 52.4219 116.016 51.2188 116.016 49.8438 116.016 49.3281 116.188 48.8125 116.531 48.2969L128.219 31.2813C129.078 30.0781 130.625 29.9062 131.828 30.7656 132.859 31.625 133.203 33 132.516 34.2031L120.828 51.2188C120.312 52.0781 119.453 52.4219 118.594 52.4219Z" stroke="#0066FF" stroke-width="4.02439" fill="#FFFFFF" transform="matrix(1.44848 0 0 1 314 228)"/><path d="M63.5938 55.8594C62.3906 55.8594 61.3594 55 61.0156 53.7969L57.4063 36.9531C57.0625 35.5781 58.0938 34.2031 59.4687 33.8594 60.8438 33.5156 62.2188 34.375 62.3906 35.75L66 52.5938C66.3438 53.9688 65.4844 55.3438 64.1094 55.6875 63.9375 55.8594 63.7656 55.8594 63.5938 55.8594Z" stroke="#0066FF" stroke-width="4.02439" fill="#FFFFFF" transform="matrix(1.44848 0 0 1 314 228)"/><path d="M57.75 29.0469C56.5469 29.0469 55.5156 28.1875 55.1719 26.9844L53.7969 20.2812C53.4531 18.9062 54.3125 17.5312 55.6875 17.1875 57.0625 16.8438 58.4375 17.7031 58.7812 19.0781 58.7812 19.0781 58.7812 19.0781 58.7812 19.25L60.1562 25.9531C60.5 27.3281 59.6406 28.7031 58.2656 29.0469L58.2656 29.0469C58.0938 29.0469 57.9219 29.0469 57.75 29.0469L57.75 29.0469Z" stroke="#0066FF" stroke-width="4.02439" fill="#FFFFFF" transform="matrix(1.44848 0 0 1 314 228)"/><path d="M46.4062 52.4219C45.5469 52.4219 44.6875 52.0781 44.3438 51.3906L32.6562 34.375C31.9688 33.1719 32.3125 31.625 33.5156 30.7656 34.7188 30.0781 36.0938 30.25 36.9531 31.4531L48.6406 48.4688C49.5 49.6719 49.1562 51.2188 47.9531 52.0781 47.4375 52.25 46.9219 52.4219 46.4062 52.4219Z" stroke="#0066FF" stroke-width="4.02439" fill="#FFFFFF" transform="matrix(1.44848 0 0 1 314 228)"/><path d="M157.781 140.766 152.625 85.0781C152.453 83.3594 150.906 81.9844 149.188 81.9844 148.5 81.9844 147.469 81.9844 146.609 81.9844L145.75 72.0156 142.656 71.8438C140.078 71.6719 137.5 71.8438 135.094 72.0156L134.234 62.7344 131.656 62.2188C113.609 59.9844 95.5625 66 82.5 78.7188 69.4375 66 51.3906 59.9844 33.3438 62.2188L30.7656 62.7344 29.9062 72.0156C27.3281 71.8438 24.9219 71.6719 22.3438 71.8438L19.4219 72.0156 18.5625 81.9844C17.5312 81.9844 16.6719 81.9844 15.9844 81.9844 14.2656 81.9844 12.7188 83.3594 12.5469 85.0781L7.39063 140.766C7.04688 142.656 8.42188 144.375 10.3125 144.547 10.4844 144.547 10.6562 144.547 10.8281 144.547 21.3125 144.203 50.7031 144.891 74.5938 160.531 75.7969 161.219 77 161.734 78.375 161.734L86.9688 161.734C88.3438 161.734 89.5469 161.391 90.5781 160.703 115.672 145.062 144.203 144.375 154.344 144.719 156.234 144.719 157.781 143.344 157.953 141.453 157.781 140.938 157.781 140.938 157.781 140.766ZM85.9375 84.9062C96.9375 73.5625 112.234 67.7188 127.875 68.5781L132.516 121.859C124.438 123.406 103.469 128.562 85.9375 143.688L85.9375 84.9062ZM37.125 68.75C52.7656 67.8906 68.0625 73.7344 79.0625 85.0781L79.0625 143.859C61.5312 128.734 40.5625 123.578 32.4844 122.031L37.125 68.75ZM20.625 132.344 25.7812 78.5469C26.8125 78.5469 28.0156 78.7188 29.3906 78.7188L25.0938 127.875 28.3594 128.219C28.7031 128.219 57.75 132 78.0312 152.109L78.0312 152.109C55.5156 134.922 30.4219 132.688 20.625 132.344ZM86.9688 152.453 86.9688 152.453C107.594 132.172 136.469 128.219 136.641 128.219L139.906 127.875 135.609 78.7188C136.984 78.5469 138.188 78.5469 139.219 78.5469L144.375 132.344C134.578 132.688 109.484 135.094 86.9688 152.453Z" stroke="#0066FF" stroke-width="4.02439" fill="#FFFFFF" transform="matrix(1.44848 0 0 1 314 228)"/></g></svg>