<svg width="2503" height="981" xmlns="http://www.w3.org/2000/svg" xmlns:xlink="http://www.w3.org/1999/xlink" xml:space="preserve" overflow="hidden"><g transform="translate(-1670 -621)"><g><g><g><path d="M457.256 12.375 457.256 12.375C461.587 28.4625 473.344 42.075 488.812 49.5L488.812 49.5C473.344 56.925 462.206 70.5375 457.256 86.625L457.256 86.625C452.925 70.5375 441.169 56.925 425.7 49.5L425.7 49.5C441.169 42.075 452.925 28.4625 457.256 12.375Z" stroke="#0066FF" stroke-width="14.4878" fill="#FFFFFF" transform="matrix(1.42424 0 0 1 1670 621)"/><path d="M61.2562 148.5 61.2562 148.5C65.5875 164.588 77.3438 178.2 92.8125 185.625L92.8125 185.625C77.3438 193.05 66.2062 206.663 61.2562 222.75L61.2562 222.75C56.925 206.663 45.1688 193.05 29.7 185.625L29.7 185.625C45.1688 178.2 56.925 164.588 61.2562 148.5Z" stroke="#0066FF" stroke-width="14.4878" fill="#FFFFFF" transform="matrix(1.42424 0 0 1 1670 621)"/><path d="M122.512 24.75 122.512 24.75C126.225 38.3625 136.125 49.5 148.5 55.6875L148.5 55.6875C135.506 61.875 126.225 73.0125 122.512 86.625L122.512 86.625C118.8 73.0125 108.9 61.875 96.525 55.6875L96.525 55.6875C108.9 49.5 118.8 38.3625 122.512 24.75Z" stroke="#0066FF" stroke-width="14.4878" fill="#FFFFFF" transform="matrix(1.42424 0 0 1 1670 621)"/><path d="M530.888 123.75 530.888 123.75C534.6 137.363 544.5 148.5 556.875 154.688L556.875 154.688C543.881 160.875 534.6 172.012 530.888 185.625L530.888 185.625C527.175 172.012 517.275 160.875 504.9 154.688L504.9 154.688C517.275 148.5 527.175 137.363 530.888 123.75Z" stroke="#0066FF" stroke-width="14.4878" fill="#FFFFFF" transform="matrix(1.42424 0 0 1 1670 621)"/><path d="M297 244.406C292.05 244.406 287.719 240.075 287.719 235.125L287.719 173.25C287.719 168.3 292.05 163.969 297 163.969 301.95 163.969 306.281 168.3 306.281 173.25L306.281 235.125C306.281 240.075 301.95 244.406 297 244.406Z" stroke="#0066FF" stroke-width="14.4878" fill="#FFFFFF" transform="matrix(1.42424 0 0 1 1670 621)"/><path d="M297 145.406C292.05 145.406 287.719 141.075 287.719 136.125L287.719 86.625C287.719 81.675 292.05 77.3438 297 77.3438 301.95 77.3438 306.281 81.675 306.281 86.625L306.281 136.125C306.281 141.075 301.95 145.406 297 145.406Z" stroke="#0066FF" stroke-width="14.4878" fill="#FFFFFF" transform="matrix(1.42424 0 0 1 1670 621)"/><path d="M297 58.7812C292.05 58.7812 287.719 54.45 287.719 49.5L287.719 24.75C287.719 19.8 292.05 15.4688 297 15.4688 301.95 15.4688 306.281 19.8 306.281 24.75L306.281 49.5C306.281 54.45 301.95 58.7812 297 58.7812Z" stroke="#0066FF" stroke-width="14.4878" fill="#FFFFFF" transform="matrix(1.42424 0 0 1 1670 621)"/><path d="M365.062 201.094C364.444 201.094 363.825 201.094 363.206 201.094 358.256 199.856 355.163 194.906 356.4 189.956L366.919 141.694C368.156 136.744 373.106 133.65 378.056 134.887 383.006 136.125 386.1 141.075 384.863 146.025L374.344 194.287C373.106 198 369.394 201.094 365.062 201.094Z" stroke="#0066FF" stroke-width="14.4878" fill="#FFFFFF" transform="matrix(1.42424 0 0 1 1670 621)"/><path d="M383.625 116.325C383.006 116.325 382.387 116.325 381.769 116.325 376.819 115.088 373.725 110.137 374.962 105.188L374.962 105.188 383.006 68.6813C384.244 63.7313 388.575 60.6375 394.144 61.2562 399.094 62.4938 402.188 66.825 401.569 72.3937 401.569 72.3937 401.569 72.3937 401.569 73.0125L393.525 109.519C391.669 113.231 387.956 116.325 383.625 116.325Z" stroke="#0066FF" stroke-width="14.4878" fill="#FFFFFF" transform="matrix(1.42424 0 0 1 1670 621)"/><path d="M426.938 188.719C421.987 188.719 417.656 184.387 417.656 179.438 417.656 177.581 418.275 175.725 419.513 173.869L461.587 112.613C464.681 108.281 470.25 107.662 474.581 110.756 478.294 113.85 479.531 118.8 477.056 123.131L434.981 184.387C433.125 187.481 430.031 188.719 426.938 188.719Z" stroke="#0066FF" stroke-width="14.4878" fill="#FFFFFF" transform="matrix(1.42424 0 0 1 1670 621)"/><path d="M228.938 201.094C224.606 201.094 220.894 198 219.656 193.669L206.663 133.031C205.425 128.081 209.137 123.131 214.087 121.894 219.038 120.656 223.988 123.75 224.606 128.7L237.6 189.338C238.837 194.287 235.744 199.238 230.794 200.475 230.175 201.094 229.556 201.094 228.938 201.094Z" stroke="#0066FF" stroke-width="14.4878" fill="#FFFFFF" transform="matrix(1.42424 0 0 1 1670 621)"/><path d="M207.9 104.569C203.569 104.569 199.856 101.475 198.619 97.1437L193.669 73.0125C192.431 68.0625 195.525 63.1125 200.475 61.875 205.425 60.6375 210.375 63.7313 211.613 68.6813 211.613 68.6813 211.613 68.6813 211.613 69.3L216.562 93.4313C217.8 98.3812 214.706 103.331 209.756 104.569L209.756 104.569C209.137 104.569 208.519 104.569 207.9 104.569L207.9 104.569Z" stroke="#0066FF" stroke-width="14.4878" fill="#FFFFFF" transform="matrix(1.42424 0 0 1 1670 621)"/><path d="M167.062 188.719C163.969 188.719 160.875 187.481 159.637 185.006L117.562 123.75C115.088 119.419 116.325 113.85 120.656 110.756 124.988 108.281 129.938 108.9 133.031 113.231L175.106 174.488C178.2 178.819 176.963 184.387 172.631 187.481 170.775 188.1 168.919 188.719 167.062 188.719Z" stroke="#0066FF" stroke-width="14.4878" fill="#FFFFFF" transform="matrix(1.42424 0 0 1 1670 621)"/><path d="M568.013 506.756 549.45 306.281C548.831 300.094 543.263 295.144 537.075 295.144 534.6 295.144 530.888 295.144 527.794 295.144L524.7 259.256 513.562 258.637C504.281 258.019 495 258.637 486.337 259.256L483.244 225.844 473.962 223.988C408.994 215.944 344.025 237.6 297 283.387 249.975 237.6 185.006 215.944 120.037 223.988L110.756 225.844 107.662 259.256C98.3812 258.637 89.7188 258.019 80.4375 258.637L69.9188 259.256 66.825 295.144C63.1125 295.144 60.0187 295.144 57.5438 295.144 51.3563 295.144 45.7875 300.094 45.1688 306.281L26.6063 506.756C25.3687 513.562 30.3188 519.75 37.125 520.369 37.7437 520.369 38.3625 520.369 38.9813 520.369 76.725 519.131 182.531 521.606 268.538 577.913 272.869 580.388 277.2 582.244 282.15 582.244L313.087 582.244C318.038 582.244 322.369 581.006 326.081 578.531 416.419 522.225 519.131 519.75 555.638 520.987 562.444 520.987 568.013 516.038 568.631 509.231 568.013 507.375 568.013 507.375 568.013 506.756ZM309.375 305.663C348.975 264.825 404.044 243.788 460.35 246.881L477.056 438.694C447.975 444.263 372.488 462.825 309.375 517.275L309.375 305.663ZM133.65 247.5C189.956 244.406 245.025 265.444 284.625 306.281L284.625 517.894C221.512 463.444 146.025 444.881 116.944 439.312L133.65 247.5ZM74.25 476.438 92.8125 282.769C96.525 282.769 100.856 283.387 105.806 283.387L90.3375 460.35 102.094 461.587C103.331 461.587 207.9 475.2 280.913 547.594L280.913 547.594C199.856 485.719 109.519 477.675 74.25 476.438ZM313.087 548.831 313.087 548.831C387.337 475.819 491.288 461.587 491.906 461.587L503.663 460.35 488.194 283.387C493.144 282.769 497.475 282.769 501.188 282.769L519.75 476.438C484.481 477.675 394.144 486.337 313.087 548.831Z" stroke="#0066FF" stroke-width="14.4878" fill="#FFFFFF" transform="matrix(1.42424 0 0 1 1670 621)"/></g></g></g><text fill="#0066FF" font-family="Courgette,Courgette_MSFontService,sans-serif" font-weight="700" font-size="275" transform="matrix(1 0 0 1 2548.69 1064)">myStoryGen</text></g></svg>