<svg width="885" height="347" xmlns="http://www.w3.org/2000/svg" xmlns:xlink="http://www.w3.org/1999/xlink" xml:space="preserve" overflow="hidden"><defs><clipPath id="clip0"><rect x="842" y="1463" width="885" height="347"/></clipPath></defs><g clip-path="url(#clip0)" transform="translate(-842 -1463)"><path d="M1629.93 1638C1608 1659.87 1592.77 1662.7 1592.77 1662.7 1589.87 1680.71 1582.75 1697.79 1572 1712.54L1576.68 1717.22 1606.07 1687.84C1604.79 1684.86 1606.18 1681.4 1609.16 1680.13 1612.15 1678.85 1615.6 1680.24 1616.88 1683.22 1618.16 1686.21 1616.77 1689.66 1613.79 1690.94 1612.31 1691.57 1610.64 1691.57 1609.16 1690.94L1579.78 1720.32 1584.46 1725C1599.21 1714.25 1616.29 1707.13 1634.32 1704.23 1634.32 1704.23 1637.13 1688.99 1659 1667.08Z" fill="#FF9900" fill-rule="evenodd"/><path d="M1727 1524C1701.08 1551.92 1632 1627.74 1632 1627.74L1669.22 1665C1669.22 1665 1720.97 1608.74 1727 1603.2Z" fill="#FF9900" fill-rule="evenodd"/><text fill="#FF9900" font-family="ADLaM Display,ADLaM Display_MSFontService,sans-serif" font-weight="400" font-size="165" transform="matrix(1 0 0 1 941.256 1672)">PicFixAI</text></g></svg>